<svg width="190" height="190" viewBox="0 0 190 190" fill="none" xmlns="http://www.w3.org/2000/svg">
<rect width="190" height="190" rx="20" fill="#3C83F6"/>
<path d="M90.2347 14V145.33H161.075V175H54.5847V14H90.2347Z" fill="white"/>
<path d="M142.941 121.684C145.151 121.684 146.941 119.894 146.941 117.684C146.941 115.475 145.151 113.684 142.941 113.684L142.941 117.684L142.941 121.684ZM121.132 117.613L117.297 118.752L121.132 117.613ZM121.228 117.684L121.228 121.684L121.228 117.684ZM110.286 81.7792L106.339 81.1344L110.286 81.7792ZM110.481 81.7669L106.647 82.9061L110.481 81.7669ZM97.9206 156.268L93.9439 156.7L97.9206 156.268ZM98.1187 156.273L94.171 155.629L98.1187 156.273ZM85.7374 45.8571L81.7954 45.1783L85.7374 45.8571ZM85.9354 45.8633L81.9587 46.295L85.9354 45.8633ZM69.5552 138.682L65.6179 139.387L69.5552 138.682ZM69.7522 138.681L65.8102 138.002L69.7522 138.681ZM60.7647 90.7182L64.6424 91.7L60.7647 90.7182ZM52.1429 124.465L52.1429 128.465L52.1429 124.465ZM52.2398 124.389L56.1175 125.371L52.2398 124.389ZM21.4414 124.465L21.4414 128.465L52.1429 128.465L52.1429 124.465L52.1429 120.465L21.4414 120.465L21.4414 124.465ZM52.2398 124.389L56.1175 125.371L64.6424 91.7L60.7647 90.7182L56.8871 89.7365L48.3622 123.408L52.2398 124.389ZM60.9601 90.7251L57.0228 91.4308L65.6179 139.387L69.5552 138.682L73.4924 137.976L64.8974 90.0195L60.9601 90.7251ZM69.7522 138.681L73.6941 139.36L89.6794 46.536L85.7374 45.8571L81.7954 45.1783L65.8102 138.002L69.7522 138.681ZM85.9354 45.8633L81.9587 46.295L93.9439 156.7L97.9206 156.268L101.897 155.836L89.912 45.4316L85.9354 45.8633ZM98.1187 156.273L102.066 156.918L114.234 82.424L110.286 81.7792L106.339 81.1344L94.171 155.629L98.1187 156.273ZM110.481 81.7669L106.647 82.9061L117.297 118.752L121.132 117.613L124.966 116.474L114.315 80.6276L110.481 81.7669ZM121.228 117.684L121.228 121.684L142.941 121.684L142.941 117.684L142.941 113.684L121.228 113.684L121.228 117.684ZM121.132 117.613L117.297 118.752C117.814 120.492 119.413 121.684 121.228 121.684L121.228 117.684L121.228 113.684C122.954 113.684 124.474 114.819 124.966 116.474L121.132 117.613ZM110.286 81.7792L114.234 82.424C113.566 86.5132 107.826 86.8767 106.647 82.9061L110.481 81.7669L114.315 80.6276C113.075 76.4533 107.041 76.8356 106.339 81.1344L110.286 81.7792ZM97.9206 156.268L93.9439 156.7C94.4592 161.447 101.297 161.63 102.066 156.918L98.1187 156.273L94.171 155.629C94.903 151.147 101.407 151.321 101.897 155.836L97.9206 156.268ZM85.7374 45.8571L89.6794 46.536C88.9121 50.9916 82.4468 50.7906 81.9587 46.295L85.9354 45.8633L89.912 45.4316C89.399 40.7055 82.6021 40.4941 81.7954 45.1783L85.7374 45.8571ZM69.5552 138.682L65.6179 139.387C66.4276 143.905 72.9152 143.883 73.6941 139.36L69.7522 138.681L65.8102 138.002C66.5511 133.7 72.7222 133.679 73.4924 137.976L69.5552 138.682ZM60.7647 90.7182L64.6424 91.7C63.6123 95.7685 57.7633 95.5622 57.0228 91.4308L60.9601 90.7251L64.8974 90.0195C64.1189 85.6762 57.97 85.4594 56.8871 89.7365L60.7647 90.7182ZM52.1429 124.465L52.1429 128.465C54.0197 128.465 55.6568 127.191 56.1175 125.371L52.2398 124.389L48.3622 123.408C48.8003 121.677 50.3576 120.465 52.1429 120.465L52.1429 124.465Z" fill="white"/>
<path d="M21.1988 115.505L47.6282 115.505C47.6705 115.505 47.7083 115.478 47.7224 115.438L56.9124 89.5232C56.9467 89.4265 57.0869 89.438 57.105 89.539L65.7153 137.58C65.735 137.69 65.8932 137.69 65.9122 137.579L81.9025 44.7267C81.922 44.6131 82.0865 44.6173 82.1003 44.7317L95.4519 155.6C95.4643 155.704 95.6071 155.722 95.6445 155.624L100.5 143" stroke="#3C83F6" stroke-width="8"/>
</svg>
